<?xml version="1.0" encoding="UTF-8"?>
<svg id="Layer_1" xmlns="http://www.w3.org/2000/svg" version="1.1" viewBox="0 0 800 400">
  <!-- Generator: Adobe Illustrator 29.6.1, SVG Export Plug-In . SVG Version: 2.1.1 Build 9)  -->
  <defs>
    <style>
      .st0 {
        fill: #0e1c2d;
      }

      .st1 {
        isolation: isolate;
      }
    </style>
  </defs>
  <g class="st1">
    <g class="st1">
      <g class="st1">
        <path class="st0" d="M241.16,309.28c0,7.85-1,14.91-2.99,21.18-1.99,6.27-4.63,11.78-7.91,16.52-3.28,4.75-7.09,8.79-11.43,12.13-4.34,3.34-8.88,6.06-13.62,8.17s-9.55,3.66-14.41,4.66c-4.86.99-9.46,1.49-13.8,1.49h-82.44v-45.7h82.44c6.21,0,10.84-1.58,13.89-4.75,3.05-3.16,4.57-7.73,4.57-13.71v-144.32c0-5.98-1.52-10.52-4.57-13.62-3.05-3.1-7.68-4.66-13.89-4.66h-82.44c-5.62,0-10.08,1.73-13.36,5.19-3.28,3.46-4.92,7.82-4.92,13.1v61.88c0,5.98,1.58,10.55,4.75,13.71s7.79,4.75,13.89,4.75h82.09v45.7h-82.44c-4.34,0-8.91-.5-13.71-1.49-4.81-.99-9.58-2.55-14.33-4.66s-9.29-4.83-13.62-8.17c-4.34-3.34-8.15-7.38-11.43-12.13-3.28-4.75-5.92-10.25-7.91-16.52-1.99-6.27-2.99-13.33-2.99-21.18v-61.88c0-4.33.5-8.9,1.49-13.71.99-4.8,2.55-9.58,4.66-14.33s4.83-9.29,8.17-13.62c3.34-4.33,7.38-8.14,12.13-11.43,4.75-3.28,10.22-5.92,16.44-7.91,6.21-1.99,13.24-2.99,21.09-2.99h82.44c4.33,0,8.93.5,13.8,1.49,4.86,1,9.67,2.55,14.41,4.66s9.29,4.83,13.62,8.17c4.33,3.34,8.14,7.38,11.43,12.13,3.28,4.75,5.92,10.23,7.91,16.44,1.99,6.21,2.99,13.24,2.99,21.09v144.32Z"/>
        <path class="st0" d="M329.41,61.96h-45.7V20.65h45.7v41.31ZM329.41,291h-45.7V100.98h45.7v190.02Z"/>
        <path class="st0" d="M456.67,291h-20.39c-6.56,0-13.57-1.11-21.01-3.34-7.44-2.22-14.39-5.89-20.83-10.99-6.45-5.1-11.78-11.72-16-19.86-4.22-8.14-6.33-18.13-6.33-29.97V20.65h45.7v206.19c0,5.62,1.76,10.11,5.27,13.45s7.91,5.01,13.18,5.01h20.39v45.7Z"/>
        <path class="st0" d="M532.43,309.28c0,7.85-1,14.91-2.99,21.18-1.99,6.27-4.63,11.78-7.91,16.52-3.28,4.75-7.09,8.79-11.43,12.13-4.34,3.34-8.88,6.06-13.62,8.17s-9.52,3.66-14.33,4.66c-4.81.99-9.38,1.49-13.71,1.49h-82.44v-45.7h82.44c6.09,0,10.66-1.58,13.71-4.75,3.05-3.16,4.57-7.73,4.57-13.71V100.98h45.7v208.3ZM532.43,61.96h-45.7V20.65h45.7v41.31Z"/>
        <path class="st0" d="M782.92,226.84c0,7.85-1,14.91-2.99,21.18-1.99,6.27-4.63,11.78-7.91,16.52-3.28,4.75-7.09,8.79-11.43,12.13-4.34,3.34-8.88,6.06-13.62,8.17s-9.55,3.66-14.41,4.66c-4.86,1-9.46,1.49-13.8,1.49h-82.44c-6.33,0-13.24-1.11-20.74-3.34-7.5-2.22-14.44-5.89-20.83-10.99-6.39-5.1-11.72-11.72-16-19.86-4.28-8.14-6.42-18.13-6.42-29.97v-61.88c0-11.72,2.14-21.65,6.42-29.79,4.28-8.14,9.61-14.77,16-19.86,6.39-5.1,13.33-8.76,20.83-10.99,7.5-2.22,14.41-3.34,20.74-3.34h82.44c11.72,0,21.68,2.11,29.88,6.33,8.2,4.22,14.82,9.52,19.86,15.91,5.04,6.39,8.7,13.33,10.99,20.83,2.29,7.5,3.43,14.47,3.43,20.92v61.88ZM737.22,165.32c0-6.33-1.58-11.01-4.75-14.06-3.16-3.05-7.73-4.57-13.71-4.57h-82.09c-6.09,0-10.72,1.55-13.89,4.66-3.16,3.11-4.75,7.65-4.75,13.62v61.88c0,5.98,1.58,10.55,4.75,13.71s7.79,4.75,13.89,4.75h82.09c6.21,0,10.84-1.58,13.89-4.75,3.05-3.16,4.57-7.73,4.57-13.71v-61.52Z"/>
      </g>
    </g>
  </g>
  <circle class="st0" cx="646.5" cy="219.5" r="19.5"/>
  <circle class="st0" cx="691" cy="219.5" r="19.5"/>
</svg>