<?xml version="1.0" encoding="UTF-8"?>
<svg id="Layer_1" xmlns="http://www.w3.org/2000/svg" version="1.1" viewBox="0 0 250 250">
  <defs>
    <style>
      .st0 {
        fill: none;
      }

      .st1 {
        fill: #8f97b7;
      }
    </style>
  </defs>
  <g id="Layer_11">
    <g>
      <path class="st0" d="M166.13,75.69h-82.09c-6.09,0-10.72,1.55-13.89,4.66-3.16,3.11-4.75,7.65-4.75,13.62v61.88c0,5.98,1.58,10.55,4.75,13.71s7.79,4.75,13.89,4.75h82.09c6.21,0,10.84-1.58,13.89-4.75,3.05-3.16,4.57-7.73,4.57-13.71v-61.52c0-6.33-1.58-11.01-4.75-14.06-3.16-3.05-7.73-4.57-13.71-4.57h0ZM93.87,168.01c-10.77,0-19.5-8.73-19.5-19.5s8.73-19.5,19.5-19.5,19.5,8.73,19.5,19.5-8.73,19.5-19.5,19.5ZM138.37,168.01c-10.77,0-19.5-8.73-19.5-19.5s8.73-19.5,19.5-19.5,19.5,8.73,19.5,19.5-8.73,19.5-19.5,19.5Z"/>
      <path class="st1" d="M226.87,73.06c-2.29-7.5-5.95-14.44-10.99-20.83-5.04-6.39-11.66-11.69-19.86-15.91s-18.17-6.33-29.88-6.33h-82.44c-6.33,0-13.24,1.12-20.74,3.34-7.5,2.23-14.44,5.89-20.83,10.99-6.39,5.1-11.72,11.72-16,19.86-4.28,8.15-6.42,18.08-6.42,29.79v61.88c0,11.84,2.14,21.83,6.42,29.97,4.28,8.15,9.61,14.77,16,19.86,6.39,5.1,13.33,8.76,20.83,10.99,7.5,2.23,14.41,3.34,20.74,3.34h82.44c4.33,0,8.93-.5,13.8-1.49,4.86-.99,9.67-2.55,14.41-4.66s9.29-4.83,13.62-8.17,8.14-7.38,11.43-12.13c3.28-4.75,5.92-10.25,7.91-16.52s2.99-13.33,2.99-21.18v-61.88c0-6.44-1.14-13.42-3.43-20.92h0ZM184.59,155.85c0,5.98-1.52,10.55-4.57,13.71s-7.68,4.75-13.89,4.75h-82.09c-6.09,0-10.72-1.58-13.89-4.75s-4.75-7.73-4.75-13.71v-61.88c0-5.98,1.58-10.52,4.75-13.62,3.16-3.1,7.79-4.66,13.89-4.66h82.09c5.98,0,10.55,1.52,13.71,4.57s4.75,7.73,4.75,14.06v61.52h0Z"/>
      <circle class="st1" cx="93.87" cy="148.51" r="19.5"/>
      <circle class="st1" cx="138.37" cy="148.51" r="19.5"/>
    </g>
  </g>
</svg>
