<?xml version="1.0" encoding="UTF-8"?>
<svg id="Layer_1" xmlns="http://www.w3.org/2000/svg" version="1.1" viewBox="0 0 800 400">
  <!-- Generator: Adobe Illustrator 29.6.1, SVG Export Plug-In . SVG Version: 2.1.1 Build 9)  -->
  <defs>
    <style>
      .st0 {
        fill: #ffc300;
      }
    </style>
  </defs>
  <path class="st0" d="M329.87,89.04h-46.11v-37.98h46.11v37.98ZM329.87,299.62h-46.11V124.91h46.11v174.7h0Z"/>
  <path class="st0" d="M458.27,299.62h-20.57c-6.62,0-13.69-1.02-21.2-3.07-7.51-2.04-14.52-5.42-21.02-10.1-6.51-4.69-11.89-10.78-16.14-18.26-4.26-7.48-6.39-16.67-6.39-27.55V51.06h46.11v189.57c0,5.17,1.78,9.3,5.32,12.37,3.54,3.07,7.98,4.61,13.3,4.61h20.57v42.02h.02Z"/>
  <path class="st0" d="M534.71,316.42c0,7.22-1.01,13.71-3.02,19.47s-4.67,10.83-7.98,15.19c-3.31,4.37-7.15,8.08-11.53,11.15s-8.96,5.57-13.74,7.51-9.61,3.37-14.46,4.28-9.46,1.37-13.83,1.37h-83.18v-42.02h83.18c6.14,0,10.76-1.45,13.83-4.37,3.08-2.91,4.61-7.11,4.61-12.6V124.91h46.11v191.51h.01ZM534.71,89.04h-46.11v-37.98h46.11v37.98Z"/>
  <path class="st0" d="M250.28,276.97c0,3.23-.56,6.22-1.68,8.99s-2.66,5.16-4.62,7.17c-1.96,2.02-4.29,3.6-6.98,4.75s-5.6,1.73-8.74,1.73H70.6c-4.03,0-8.38-.49-13.03-1.47-4.65-.98-9.24-2.51-13.78-4.58-4.54-2.07-8.88-4.75-13.03-8.04-4.15-3.28-7.82-7.26-11.01-11.93-3.19-4.67-5.74-10.08-7.65-16.25-1.91-6.16-2.86-13.11-2.86-20.83v-121.68c0-4.15.48-8.61,1.43-13.4.95-4.78,2.44-9.51,4.45-14.17,2.02-4.67,4.65-9.13,7.9-13.4,3.25-4.26,7.14-8.04,11.68-11.32,4.54-3.28,9.77-5.9,15.72-7.86,5.94-1.96,12.66-2.94,20.17-2.94h177.67v44.94H70.6c-5.71,0-10.08,1.56-13.11,4.67s-4.54,7.72-4.54,13.83v121.34c0,5.76,1.54,10.23,4.62,13.4s7.42,4.75,13.03,4.75h135.98v-56.35h-116.31v-45.29h138c3.14,0,6.05.6,8.74,1.81s5.01,2.85,6.98,4.93c1.96,2.07,3.5,4.47,4.62,7.17,1.12,2.71,1.68,5.62,1.68,8.73v101.29h0Z"/>
  <path class="st0" d="M752.42,224.16v7.59c0,4.35,1.04,5.66,4.17,5.66s5.02-1.72,5.02-5.97v-12.95h-4.64c-3.13,0-4.55,1.42-4.55,5.66h0Z"/>
  <path class="st0" d="M783.99,164.5c-2.31-6.9-6-13.28-11.09-19.15-5.09-5.88-11.76-10.75-20.04-14.63-8.27-3.88-18.32-5.82-30.15-5.82h-83.18c-6.39,0-13.36,1.03-20.93,3.07-7.57,2.05-14.57,5.42-21.02,10.1-6.45,4.68-11.83,10.78-16.14,18.26-4.32,7.48-6.48,16.61-6.48,27.39v56.89c0,10.89,2.16,20.07,6.48,27.55s9.7,13.57,16.14,18.26c6.45,4.69,13.45,8.06,21.02,10.1,7.57,2.05,14.54,3.07,20.93,3.07h83.18c4.38,0,9.02-.45,13.92-1.37,4.9-.92,9.76-2.34,14.54-4.28,4.78-1.94,9.36-4.44,13.74-7.51s8.22-6.79,11.53-11.15c3.31-4.36,5.97-9.42,7.98-15.19,2.01-5.76,3.02-12.26,3.02-19.47h0v-56.89c0-5.93-1.15-12.34-3.46-19.23h.01ZM741.34,184.08v56.56c0,5.5-1.53,9.7-4.61,12.61-3.08,2.91-7.75,4.37-14.01,4.37h-82.83c-6.15,0-10.82-1.46-14.01-4.37-3.2-2.91-4.79-7.11-4.79-12.61v-56.89c0-5.49,1.6-9.66,4.79-12.52,3.2-2.86,7.87-4.28,14.01-4.28h82.83c6.03,0,10.64,1.4,13.83,4.2,3.2,2.8,4.79,7.11,4.79,12.93h0ZM768.81,241.56c0,1.32-.66,2.12-1.99,2.12h-3.22c-1.32,0-1.99-.81-1.99-2.12v-1.31c-2.46,2.53-5.78,3.95-8.71,3.95-4.17,0-7.77-2.83-7.77-9.31v-10.72c0-7.79,2.65-12.04,11.84-12.04h4.64v-13.05c0-4.35-1.42-5.66-4.64-5.66s-4.55,1.31-4.55,5.66v4.35c0,1.42-.76,2.12-2.08,2.12h-3.13c-1.32,0-2.08-.71-2.08-2.12v-4.45c0-7.79,2.65-12.04,11.84-12.04s11.74,4.25,11.84,12.04v42.58h0ZM783.67,241.46c0,1.42-.76,2.23-2.08,2.23h-3.13c-1.32,0-2.08-.81-2.08-2.23v-51.89c0-1.42.76-2.12,2.08-2.12h3.13c1.33,0,2.08.71,2.08,2.12v51.89ZM779.98,179.86c-2.65,0-4.55-2.02-4.55-4.86s1.89-4.96,4.55-4.96,4.64,2.02,4.64,4.96-1.89,4.86-4.64,4.86Z"/>
</svg>