<svg xmlns="http://www.w3.org/2000/svg" width="1310" height="1060" viewBox="0 0 1310 1060" shape-rendering="crispEdges">
<rect x="0" y="0" width="1310" height="1060" fill="#282c34"/>
<rect x="230" y="200" width="840" height="10" fill="#d77757"/>
<rect x="230" y="210" width="840" height="10" fill="#d77757"/>
<rect x="230" y="220" width="840" height="10" fill="#d77757"/>
<rect x="230" y="230" width="840" height="10" fill="#d77757"/>
<rect x="230" y="240" width="840" height="10" fill="#d77757"/>
<rect x="230" y="250" width="840" height="10" fill="#d77757"/>
<rect x="230" y="260" width="840" height="10" fill="#d77757"/>
<rect x="230" y="270" width="840" height="10" fill="#d77757"/>
<rect x="230" y="280" width="840" height="10" fill="#d77757"/>
<rect x="230" y="290" width="840" height="10" fill="#d77757"/>
<rect x="230" y="300" width="840" height="10" fill="#d77757"/>
<rect x="230" y="310" width="840" height="10" fill="#d77757"/>
<rect x="230" y="320" width="840" height="10" fill="#d77757"/>
<rect x="230" y="330" width="840" height="10" fill="#d77757"/>
<rect x="230" y="340" width="140" height="10" fill="#d77757"/>
<rect x="370" y="340" width="70" height="10" fill="#000000"/>
<rect x="440" y="340" width="420" height="10" fill="#d77757"/>
<rect x="860" y="340" width="70" height="10" fill="#000000"/>
<rect x="930" y="340" width="140" height="10" fill="#d77757"/>
<rect x="230" y="350" width="140" height="10" fill="#d77757"/>
<rect x="370" y="350" width="70" height="10" fill="#000000"/>
<rect x="440" y="350" width="420" height="10" fill="#d77757"/>
<rect x="860" y="350" width="70" height="10" fill="#000000"/>
<rect x="930" y="350" width="140" height="10" fill="#d77757"/>
<rect x="230" y="360" width="140" height="10" fill="#d77757"/>
<rect x="370" y="360" width="70" height="10" fill="#000000"/>
<rect x="440" y="360" width="420" height="10" fill="#d77757"/>
<rect x="860" y="360" width="70" height="10" fill="#000000"/>
<rect x="930" y="360" width="140" height="10" fill="#d77757"/>
<rect x="230" y="370" width="140" height="10" fill="#d77757"/>
<rect x="370" y="370" width="70" height="10" fill="#000000"/>
<rect x="440" y="370" width="420" height="10" fill="#d77757"/>
<rect x="860" y="370" width="70" height="10" fill="#000000"/>
<rect x="930" y="370" width="140" height="10" fill="#d77757"/>
<rect x="230" y="380" width="140" height="10" fill="#d77757"/>
<rect x="370" y="380" width="70" height="10" fill="#000000"/>
<rect x="440" y="380" width="420" height="10" fill="#d77757"/>
<rect x="860" y="380" width="70" height="10" fill="#000000"/>
<rect x="930" y="380" width="140" height="10" fill="#d77757"/>
<rect x="230" y="390" width="140" height="10" fill="#d77757"/>
<rect x="370" y="390" width="70" height="10" fill="#000000"/>
<rect x="440" y="390" width="420" height="10" fill="#d77757"/>
<rect x="860" y="390" width="70" height="10" fill="#000000"/>
<rect x="930" y="390" width="140" height="10" fill="#d77757"/>
<rect x="230" y="400" width="140" height="10" fill="#d77757"/>
<rect x="370" y="400" width="70" height="10" fill="#000000"/>
<rect x="440" y="400" width="420" height="10" fill="#d77757"/>
<rect x="860" y="400" width="70" height="10" fill="#000000"/>
<rect x="930" y="400" width="140" height="10" fill="#d77757"/>
<rect x="230" y="410" width="140" height="10" fill="#d77757"/>
<rect x="370" y="410" width="70" height="10" fill="#000000"/>
<rect x="440" y="410" width="420" height="10" fill="#d77757"/>
<rect x="860" y="410" width="70" height="10" fill="#000000"/>
<rect x="930" y="410" width="140" height="10" fill="#d77757"/>
<rect x="230" y="420" width="140" height="10" fill="#d77757"/>
<rect x="370" y="420" width="70" height="10" fill="#000000"/>
<rect x="440" y="420" width="420" height="10" fill="#d77757"/>
<rect x="860" y="420" width="70" height="10" fill="#000000"/>
<rect x="930" y="420" width="140" height="10" fill="#d77757"/>
<rect x="230" y="430" width="140" height="10" fill="#d77757"/>
<rect x="370" y="430" width="70" height="10" fill="#000000"/>
<rect x="440" y="430" width="420" height="10" fill="#d77757"/>
<rect x="860" y="430" width="70" height="10" fill="#000000"/>
<rect x="930" y="430" width="140" height="10" fill="#d77757"/>
<rect x="230" y="440" width="140" height="10" fill="#d77757"/>
<rect x="370" y="440" width="70" height="10" fill="#000000"/>
<rect x="440" y="440" width="420" height="10" fill="#d77757"/>
<rect x="860" y="440" width="70" height="10" fill="#000000"/>
<rect x="930" y="440" width="140" height="10" fill="#d77757"/>
<rect x="230" y="450" width="140" height="10" fill="#d77757"/>
<rect x="370" y="450" width="70" height="10" fill="#000000"/>
<rect x="440" y="450" width="420" height="10" fill="#d77757"/>
<rect x="860" y="450" width="70" height="10" fill="#000000"/>
<rect x="930" y="450" width="140" height="10" fill="#d77757"/>
<rect x="230" y="460" width="140" height="10" fill="#d77757"/>
<rect x="370" y="460" width="70" height="10" fill="#000000"/>
<rect x="440" y="460" width="420" height="10" fill="#d77757"/>
<rect x="860" y="460" width="70" height="10" fill="#000000"/>
<rect x="930" y="460" width="140" height="10" fill="#d77757"/>
<rect x="230" y="470" width="140" height="10" fill="#d77757"/>
<rect x="370" y="470" width="70" height="10" fill="#000000"/>
<rect x="440" y="470" width="420" height="10" fill="#d77757"/>
<rect x="860" y="470" width="70" height="10" fill="#000000"/>
<rect x="930" y="470" width="140" height="10" fill="#d77757"/>
<rect x="90" y="480" width="1120" height="10" fill="#d77757"/>
<rect x="90" y="490" width="1120" height="10" fill="#d77757"/>
<rect x="90" y="500" width="1120" height="10" fill="#d77757"/>
<rect x="90" y="510" width="1120" height="10" fill="#d77757"/>
<rect x="90" y="520" width="1120" height="10" fill="#d77757"/>
<rect x="90" y="530" width="1120" height="10" fill="#d77757"/>
<rect x="90" y="540" width="1120" height="10" fill="#d77757"/>
<rect x="90" y="550" width="1120" height="10" fill="#d77757"/>
<rect x="90" y="560" width="1120" height="10" fill="#d77757"/>
<rect x="90" y="570" width="1120" height="10" fill="#d77757"/>
<rect x="90" y="580" width="1120" height="10" fill="#d77757"/>
<rect x="90" y="590" width="1120" height="10" fill="#d77757"/>
<rect x="90" y="600" width="1120" height="10" fill="#d77757"/>
<rect x="90" y="610" width="1120" height="10" fill="#d77757"/>
<rect x="230" y="620" width="840" height="10" fill="#d77757"/>
<rect x="230" y="630" width="840" height="10" fill="#d77757"/>
<rect x="230" y="640" width="840" height="10" fill="#d77757"/>
<rect x="230" y="650" width="840" height="10" fill="#d77757"/>
<rect x="230" y="660" width="840" height="10" fill="#d77757"/>
<rect x="230" y="670" width="840" height="10" fill="#d77757"/>
<rect x="230" y="680" width="840" height="10" fill="#d77757"/>
<rect x="230" y="690" width="840" height="10" fill="#d77757"/>
<rect x="230" y="700" width="840" height="10" fill="#d77757"/>
<rect x="230" y="710" width="840" height="10" fill="#d77757"/>
<rect x="230" y="720" width="840" height="10" fill="#d77757"/>
<rect x="230" y="730" width="840" height="10" fill="#d77757"/>
<rect x="230" y="740" width="840" height="10" fill="#d77757"/>
<rect x="230" y="750" width="840" height="10" fill="#d77757"/>
<rect x="300" y="760" width="70" height="10" fill="#d77757"/>
<rect x="440" y="760" width="70" height="10" fill="#d77757"/>
<rect x="790" y="760" width="70" height="10" fill="#d77757"/>
<rect x="930" y="760" width="70" height="10" fill="#d77757"/>
<rect x="300" y="770" width="70" height="10" fill="#d77757"/>
<rect x="440" y="770" width="70" height="10" fill="#d77757"/>
<rect x="790" y="770" width="70" height="10" fill="#d77757"/>
<rect x="930" y="770" width="70" height="10" fill="#d77757"/>
<rect x="300" y="780" width="70" height="10" fill="#d77757"/>
<rect x="440" y="780" width="70" height="10" fill="#d77757"/>
<rect x="790" y="780" width="70" height="10" fill="#d77757"/>
<rect x="930" y="780" width="70" height="10" fill="#d77757"/>
<rect x="300" y="790" width="70" height="10" fill="#d77757"/>
<rect x="440" y="790" width="70" height="10" fill="#d77757"/>
<rect x="790" y="790" width="70" height="10" fill="#d77757"/>
<rect x="930" y="790" width="70" height="10" fill="#d77757"/>
<rect x="300" y="800" width="70" height="10" fill="#d77757"/>
<rect x="440" y="800" width="70" height="10" fill="#d77757"/>
<rect x="790" y="800" width="70" height="10" fill="#d77757"/>
<rect x="930" y="800" width="70" height="10" fill="#d77757"/>
<rect x="300" y="810" width="70" height="10" fill="#d77757"/>
<rect x="440" y="810" width="70" height="10" fill="#d77757"/>
<rect x="790" y="810" width="70" height="10" fill="#d77757"/>
<rect x="930" y="810" width="70" height="10" fill="#d77757"/>
<rect x="300" y="820" width="70" height="10" fill="#d77757"/>
<rect x="440" y="820" width="70" height="10" fill="#d77757"/>
<rect x="790" y="820" width="70" height="10" fill="#d77757"/>
<rect x="930" y="820" width="70" height="10" fill="#d77757"/>
<rect x="300" y="830" width="70" height="10" fill="#d77757"/>
<rect x="440" y="830" width="70" height="10" fill="#d77757"/>
<rect x="790" y="830" width="70" height="10" fill="#d77757"/>
<rect x="930" y="830" width="70" height="10" fill="#d77757"/>
<rect x="300" y="840" width="70" height="10" fill="#d77757"/>
<rect x="440" y="840" width="70" height="10" fill="#d77757"/>
<rect x="790" y="840" width="70" height="10" fill="#d77757"/>
<rect x="930" y="840" width="70" height="10" fill="#d77757"/>
<rect x="300" y="850" width="70" height="10" fill="#d77757"/>
<rect x="440" y="850" width="70" height="10" fill="#d77757"/>
<rect x="790" y="850" width="70" height="10" fill="#d77757"/>
<rect x="930" y="850" width="70" height="10" fill="#d77757"/>
<rect x="300" y="860" width="70" height="10" fill="#d77757"/>
<rect x="440" y="860" width="70" height="10" fill="#d77757"/>
<rect x="790" y="860" width="70" height="10" fill="#d77757"/>
<rect x="930" y="860" width="70" height="10" fill="#d77757"/>
<rect x="300" y="870" width="70" height="10" fill="#d77757"/>
<rect x="440" y="870" width="70" height="10" fill="#d77757"/>
<rect x="790" y="870" width="70" height="10" fill="#d77757"/>
<rect x="930" y="870" width="70" height="10" fill="#d77757"/>
<rect x="300" y="880" width="70" height="10" fill="#d77757"/>
<rect x="440" y="880" width="70" height="10" fill="#d77757"/>
<rect x="790" y="880" width="70" height="10" fill="#d77757"/>
<rect x="930" y="880" width="70" height="10" fill="#d77757"/>
<rect x="300" y="890" width="70" height="10" fill="#d77757"/>
<rect x="440" y="890" width="70" height="10" fill="#d77757"/>
<rect x="790" y="890" width="70" height="10" fill="#d77757"/>
<rect x="930" y="890" width="70" height="10" fill="#d77757"/>
</svg>